<?xml version="1.0" encoding="UTF-8" standalone="no"?>
<!DOCTYPE svg PUBLIC "-//W3C//DTD SVG 1.1//EN"
"http://www.w3.org/Graphics/SVG/1.1/DTD/svg11.dtd">
<svg viewBox="0 0 640 909" version="1.1" xmlns="http://www.w3.org/2000/svg" xmlns:xlink="http://www.w3.org/1999/xlink">
<defs>
<style type="text/css"><![CDATA[
.g1_5{
fill: none;
stroke: #FDC011;
stroke-width: 1.1458334;
stroke-linecap: butt;
stroke-linejoin: miter;
}
]]></style>
</defs>
<path d="M235,90.4l349.6,0" class="g1_5" />
<image preserveAspectRatio="none" x="-1" y="475" width="644" height="436" xlink:href="img/1.png" />
<image x="0" y="908" width="1" height="3" xlink:href="shade/1.png" />
<image x="0" y="908" width="1" height="3" xlink:href="shade/2.png" />
<image x="0" y="908" width="1" height="3" xlink:href="shade/3.png" />
<image x="0" y="908" width="1" height="3" xlink:href="shade/4.png" />
<image x="573" y="17" width="54" height="21" xlink:href="shade/5.png" />
<image x="0" y="908" width="1" height="3" xlink:href="shade/6.png" />
<image x="0" y="908" width="1" height="3" xlink:href="shade/7.png" />
<image x="0" y="908" width="1" height="3" xlink:href="shade/8.png" />
<image x="0" y="908" width="1" height="3" xlink:href="shade/9.png" />
<image x="599" y="19" width="11" height="5" xlink:href="shade/10.png" />
<image x="0" y="908" width="1" height="3" xlink:href="shade/11.png" />
<image x="0" y="908" width="1" height="3" xlink:href="shade/12.png" />
<image x="0" y="908" width="1" height="3" xlink:href="shade/13.png" />
<image x="0" y="908" width="1" height="3" xlink:href="shade/14.png" />
<image x="595" y="23" width="8" height="4" xlink:href="shade/15.png" />
<image x="0" y="908" width="1" height="3" xlink:href="shade/16.png" />
<image x="0" y="908" width="1" height="3" xlink:href="shade/17.png" />
<image x="0" y="908" width="1" height="3" xlink:href="shade/18.png" />
<image x="0" y="908" width="1" height="3" xlink:href="shade/19.png" />
<image x="584" y="20" width="9" height="7" xlink:href="shade/20.png" />
<image x="611" y="23" width="7" height="4" xlink:href="shade/21.png" />
<image x="611" y="23" width="7" height="4" xlink:href="shade/22.png" />
<image x="611" y="23" width="7" height="4" xlink:href="shade/23.png" />
<image x="611" y="23" width="7" height="4" xlink:href="shade/24.png" />
<image x="611" y="22" width="7" height="5" xlink:href="shade/25.png" />
</svg>