<?xml version="1.0" encoding="UTF-8" standalone="no"?>
<!DOCTYPE svg PUBLIC "-//W3C//DTD SVG 1.1//EN"
"http://www.w3.org/Graphics/SVG/1.1/DTD/svg11.dtd">
<svg viewBox="0 0 640 909" version="1.1" xmlns="http://www.w3.org/2000/svg" xmlns:xlink="http://www.w3.org/1999/xlink">
<defs>
<style type="text/css"><![CDATA[
.g1_14{
fill: none;
stroke: #FDC011;
stroke-width: 1.1458334;
stroke-linecap: butt;
stroke-linejoin: miter;
}
.g2_14{
fill: #FFFFFF;
}
]]></style>
</defs>
<path d="M386.3,90.4l198.3,0" class="g1_14" />
<path d="M11.9,435.6c0,12.1,10.7,21.9,23.9,21.9c13.2,0,23.9,-9.8,23.9,-21.9c0,-12.2,-10.7,-22,-23.9,-22c-13.2,0,-23.9,9.8,-23.9,22Z" class="g2_14" />
<path d="M15.9,442c0.4,2.7,2.3,4.8,4.2,4.5c1.9,-0.3,3.1,-2.8,2.7,-5.6c-0.5,-2.8,-2.3,-4.8,-4.2,-4.5c-1.9,0.3,-3.1,2.8,-2.7,5.6Z" class="g2_14" />
<image x="14" y="435" width="11" height="14" xlink:href="shade/1.png" />
<path d="M49.5,431.1l-5.1,0.5c0,0,0.8,0.2,1.1,0.5c0.4,0.7,-1.8,4.3,-1.8,4.3Z" class="g2_14" />
<image x="19" y="428" width="35" height="18" xlink:href="shade/2.png" />
<image x="49" y="420" width="6" height="10" xlink:href="shade/3.png" />
<image x="48" y="424" width="5" height="7" xlink:href="shade/4.png" />
<path d="M21.9,432c2.6,1.2,7,2,12,2c4.8,0,9.1,-0.7,11.7,-1.8c1.5,1.9,2.4,4.2,2.4,6.7c0,6.8,-6.4,12.2,-14.3,12.2c-7.9,0,-14.3,-5.4,-14.3,-12.2c0,-2.5,0.9,-4.9,2.5,-6.9Z" class="g2_14" />
<image x="18" y="430" width="33" height="23" xlink:href="shade/5.png" />
<path d="M23.4,452.7l21.3,0l0,-3.9l-21.3,0l0,3.9Z" class="g2_14" />
<image x="23" y="449" width="21" height="3" xlink:href="shade/6.png" />
<path d="M11.9,30.3c0,12.2,10.7,22,23.9,22c13.2,0,23.9,-9.8,23.9,-22C59.7,18.2,49,8.3,35.8,8.3c-13.2,0,-23.9,9.9,-23.9,22Z" class="g2_14" />
<path d="M15.9,36.7c0.4,2.8,2.3,4.8,4.2,4.5c1.9,-0.3,3.1,-2.8,2.7,-5.5C22.3,32.9,20.5,30.9,18.6,31.2c-1.9,0.2,-3.1,2.7,-2.7,5.5Z" class="g2_14" />
<image x="14" y="30" width="11" height="14" xlink:href="shade/7.png" />
<path d="M49.5,25.9l-5.1,0.5c0,0,0.8,0.1,1.1,0.5c0.4,0.6,-1.8,4.3,-1.8,4.3Z" class="g2_14" />
<image x="19" y="23" width="35" height="18" xlink:href="shade/8.png" />
<image x="49" y="15" width="6" height="11" xlink:href="shade/9.png" />
<image x="48" y="19" width="5" height="8" xlink:href="shade/10.png" />
<path d="M21.9,26.8c2.6,1.2,7,2,12,2c4.8,0,9.1,-0.8,11.7,-1.9c1.5,1.9,2.4,4.3,2.4,6.8c0,6.7,-6.4,12.2,-14.3,12.2C25.8,45.9,19.4,40.4,19.4,33.7c0,-2.6,0.9,-5,2.5,-6.9Z" class="g2_14" />
<image x="18" y="25" width="33" height="23" xlink:href="shade/11.png" />
<path d="M23.4,47.4l21.3,0l0,-3.9l-21.3,0l0,3.9Z" class="g2_14" />
<image x="23" y="44" width="21" height="3" xlink:href="shade/12.png" />
<path d="M444.2,486.7l140.4,0" class="g1_14" />
</svg>