<?xml version="1.0" encoding="UTF-8" standalone="no"?>
<!DOCTYPE svg PUBLIC "-//W3C//DTD SVG 1.1//EN"
"http://www.w3.org/Graphics/SVG/1.1/DTD/svg11.dtd">
<svg viewBox="0 0 640 909" version="1.1" xmlns="http://www.w3.org/2000/svg" xmlns:xlink="http://www.w3.org/1999/xlink">
<defs>
<style type="text/css"><![CDATA[
.g1_15{
fill: none;
stroke: #FDC011;
stroke-width: 1.1458334;
stroke-linecap: butt;
stroke-linejoin: miter;
}
.g2_15{
fill: #FFFFFF;
}
]]></style>
</defs>
<path d="M325.9,90.4l258.7,0" class="g1_15" />
<path d="M626.9,30.3c0,12.2,-10.7,22,-23.9,22c-13.2,0,-23.9,-9.8,-23.9,-22c0,-12.1,10.7,-22,23.9,-22c13.2,0,23.9,9.9,23.9,22Z" class="g2_15" />
<path d="M622.9,36.7c-0.5,2.8,-2.3,4.8,-4.2,4.5c-1.9,-0.3,-3.1,-2.8,-2.7,-5.5c0.4,-2.8,2.3,-4.8,4.2,-4.5c1.9,0.2,3.1,2.7,2.7,5.5Z" class="g2_15" />
<image x="614" y="30" width="10" height="14" xlink:href="shade/1.png" />
<path d="M589.3,25.9l5.1,0.5c0,0,-0.8,0.1,-1.1,0.5c-0.5,0.6,1.8,4.3,1.8,4.3Z" class="g2_15" />
<image x="586" y="23" width="34" height="18" xlink:href="shade/2.png" />
<image x="584" y="15" width="6" height="11" xlink:href="shade/3.png" />
<image x="586" y="19" width="6" height="8" xlink:href="shade/4.png" />
<path d="M616.9,26.8c-2.6,1.2,-7,2,-12,2c-4.8,0,-9.1,-0.8,-11.7,-1.9c-1.5,1.9,-2.4,4.3,-2.4,6.8c0,6.7,6.4,12.2,14.3,12.2c7.9,0,14.3,-5.5,14.3,-12.2c0,-2.6,-0.9,-5,-2.5,-6.9Z" class="g2_15" />
<image x="589" y="25" width="33" height="23" xlink:href="shade/5.png" />
<path d="M615.4,47.4l-21.3,0l0,-3.9l21.3,0l0,3.9Z" class="g2_15" />
<image x="595" y="44" width="21" height="3" xlink:href="shade/6.png" />
</svg>