<?xml version="1.0" encoding="UTF-8" standalone="no"?>
<!DOCTYPE svg PUBLIC "-//W3C//DTD SVG 1.1//EN"
"http://www.w3.org/Graphics/SVG/1.1/DTD/svg11.dtd">
<svg viewBox="0 0 640 909" version="1.1" xmlns="http://www.w3.org/2000/svg" xmlns:xlink="http://www.w3.org/1999/xlink">
<defs>
<clipPath id="c0_16"><path d="M240.4,469.5l0,-84.4l160.1,0l0,84.4Z" /></clipPath>
<clipPath id="c1_16"><path d="M599.8,106.4l0,-63.1l15.8,0l0,63.1Z" /></clipPath>
<style type="text/css"><![CDATA[
.g1_16{
fill: #231F20;
}
.g2_16{
fill: #EBA914;
}
.g3_16{
fill: #BF1D2C;
}
]]></style>
</defs>
<path d="M282.3,402.8l-8,29l-4.6,0l-5.6,-21l-5.7,21l-4.6,0l-8,-29l4.6,0l5.7,21.1l5.7,-21.1l4.5,0l5.8,21.1l5.6,-21.1Z" class="g1_16" />
<path d="M284.4,402.9l4.6,-0.4l0,7.1l-0.1,2.7l0.2,0c2.1,-0.8,3.8,-1.2,5.9,-1.2c3.7,0,6.2,1.7,6.2,8.1l0,12.6l-4.6,0l0,-12.3c0,-3.8,-1.9,-4.3,-4,-4.3c-1.3,0,-2.5,0.3,-3.6,0.6l0,16l-4.6,0Z" class="g1_16" />
<path d="M305.2,411.4l4.5,0l0,20.4l-4.5,0l0,-20.4Zm2.3,-8.2c2.3,0,2.7,1.4,2.7,2.9c0,1.5,-0.5,3,-2.7,3c-2.3,0,-2.8,-1.5,-2.8,-3c0,-1.5,0.5,-2.9,2.8,-2.9Z" class="g1_16" />
<path d="M313.6,411.4l3.1,0l0.7,1.7l0.2,0c1.3,-1.1,3.2,-2,5.7,-2c0.3,0,0.6,0,0.9,0.1l0,4.5c-0.8,-0.2,-1.7,-0.3,-2.6,-0.3c-1.2,0,-2.2,0.3,-3.4,0.8l0,15.6l-4.6,0Z" class="g1_16" />
<path d="M326.2,431.8l0,-28.9l4.5,-0.4l0,29.3Z" class="g1_16" />
<path d="M367.6,421.7c0,-3.8,-0.6,-7,-4.3,-7c-3.7,0,-4.6,3,-4.6,7c0,3.7,0.8,6.9,4.4,6.9c3.7,0,4.5,-3,4.5,-6.9m-4.3,-10.6c6.5,0,9,3.9,9,10.6c0,6.4,-2.4,10.6,-9.1,10.6c-6.7,0,-9.1,-4.2,-9.1,-10.6c0,-6.7,2.7,-10.6,9.2,-10.6Z" class="g1_16" />
<path d="M388.1,421.7c0,-3.8,-0.6,-7,-4.3,-7c-3.7,0,-4.6,3,-4.6,7c0,3.7,0.8,6.9,4.4,6.9c3.7,0,4.5,-3,4.5,-6.9m-4.3,-10.6c6.5,0,9,3.9,9,10.6c0,6.4,-2.4,10.6,-9.1,10.6c-6.7,0,-9.1,-4.2,-9.1,-10.6c0,-6.7,2.7,-10.6,9.2,-10.6Z" class="g1_16" />
<path d="M395.8,431.8l0,-28.9l4.6,-0.4l0,29.3Z" class="g1_16" />
<path d="M364.4,389.2c-3.8,-4.1,-18.1,3.6,-32.6,15.6l0,1.6c14.2,-11.9,27.6,-18.9,30.7,-15.6c1.6,1.6,0.2,6.8,-3.3,12.9c-0.6,0.2,-1.1,0.7,-1.7,1.5c-4.5,6.5,-11.1,14.4,-18.3,21.2c-18.5,17.4,-36.5,28.1,-40.1,24.2c-2.1,-2.2,1.3,-9.3,7.5,-17.7l-1.7,0c-6.6,8.9,-10.2,16.7,-7.5,19.5c4.5,4.8,25.3,-7,43.8,-24.5c8.4,-7.9,14.8,-14.6,18.7,-20.6c1.1,-1.7,1.2,-2.9,0.7,-3.5c4.5,-6.9,6.1,-12.2,3.8,-14.6Z" class="g2_16" />
<path d="M339,416.1c1.1,-0.4,2.3,-0.6,3.4,-0.6c2.4,0,3.9,0.7,4.5,3c1.2,-1.3,2.3,-2.6,3.4,-3.9c-1.3,-2.4,-3.3,-3.5,-5.8,-3.5c-2.3,0,-4.6,1.1,-6,1.8l-0.2,0l-0.4,-1.5l-3.4,0l0,19.3c1.4,-1.3,2.9,-2.7,4.4,-4c0.1,-4.4,0.1,-6.5,0.1,-10.6Z" class="g1_16" />
<path d="M347,422.3c-0.3,4.6,-2,5.8,-4.6,5.8c-0.5,0,-1,0,-1.4,0c-2.2,2,-4.3,4,-6.5,5.8l0,7.7l4.6,-0.5l0,-9.4l0.1,0c1.3,0.3,2.7,0.4,4,0.4c5.3,0,8.5,-3.5,8.5,-10.7c0,-1.3,-0.1,-2.5,-0.3,-3.6c-1.4,1.4,-2.8,2.9,-4.4,4.5Z" class="g1_16" />
<path d="M277.2,397.5c0.2,-0.2,0.4,-0.4,0.4,-0.7c0,-0.3,-0.1,-0.5,-0.4,-0.6c-0.5,-0.2,-1.2,0,-1.6,0.2c-0.3,0,-0.5,0.1,-0.8,0.2c-0.5,0.1,-1,0.3,-1.6,0.4c-0.6,0.1,-1.2,0.2,-1.9,0.3c-0.6,0.1,-1.3,0.1,-1.9,0.2c-0.7,0,-1.4,0.1,-2,0.1c-0.2,0,-0.4,0,-0.6,0c-0.6,0,-1.2,0,-1.8,0c-0.8,-0.1,-1.6,-0.1,-2.4,-0.2c-0.8,0,-1.5,-0.1,-2.2,-0.2c-0.7,-0.1,-1.4,-0.2,-2,-0.3c-0.6,-0.1,-1.2,-0.2,-1.7,-0.4c-0.5,-0.1,-0.9,-0.2,-1.3,-0.4c-0.2,0,-0.4,-0.1,-0.6,-0.1c-0.2,0,-0.4,0.1,-0.5,0.3c-0.1,0.1,0,0.4,0.1,0.5c0.1,0.1,0.3,0.2,0.5,0.3c0.1,0,0.2,0.1,0.3,0.1c0.4,0.2,0.9,0.3,1.4,0.5c0.5,0.1,1,0.2,1.6,0.4c0.5,0.1,1.1,0.2,1.8,0.3c0.6,0.1,1.2,0.2,1.9,0.2c0.7,0.1,1.4,0.2,2.1,0.2c0.7,0,1.4,0.1,2.1,0.1c0.8,0,1.5,0,2.2,0c0.8,-0.1,1.5,-0.1,2.2,-0.2c0.6,0,1.1,0,1.6,-0.1c0.1,0,0.2,0,0.4,0c0,0.2,0.3,0.4,0.5,0.5c0.3,0,0.5,0.1,0.8,0c1.1,0,2.2,-0.2,3.3,-0.3c1.1,-0.1,2.1,-0.3,3.1,-0.5c1,-0.1,1.9,-0.4,2.7,-0.6c0.9,-0.2,1.7,-0.5,2.3,-0.7c0.7,-0.3,1.3,-0.6,1.8,-0.9c0.5,-0.3,0.9,-0.6,1.2,-0.9c0.3,-0.3,0.5,-0.6,0.6,-0.9c0.1,-0.4,0.1,-0.7,-0.1,-1c-0.1,-0.4,-0.4,-0.7,-0.8,-1c-0.3,-0.3,-0.8,-0.6,-1.4,-0.9c-0.6,-0.3,-1.3,-0.6,-2.1,-0.9c-0.8,-0.3,-1.7,-0.5,-2.7,-0.8c-0.9,-0.2,-2,-0.4,-3.1,-0.6c-1.2,-0.2,-2.4,-0.4,-3.7,-0.5c-1.2,-0.2,-2.5,-0.3,-3.9,-0.4c-1.4,0,-2.8,-0.1,-4.2,-0.1c-1.4,0,-2.8,0,-4.2,0c-1.4,0.1,-2.8,0.1,-4.2,0.2c-1.4,0.1,-2.7,0.3,-4,0.5c-1.3,0.1,-2.5,0.3,-3.7,0.5c-1.2,0.3,-2.3,0.5,-3.3,0.8c-1,0.3,-1.9,0.6,-2.7,0.9c-0.8,0.3,-1.6,0.6,-2.1,1c-0.6,0.4,-1.1,0.7,-1.4,1.1c-0.4,0.4,-0.6,0.8,-0.7,1.2c-0.1,0.4,0,0.7,0.2,1.1c0.2,0.4,0.5,0.8,1,1.2c0.4,0.4,1,0.8,1.7,1.1c0.7,0.4,1.6,0.7,2.5,1c1,0.4,2.1,0.7,3.2,1c1.2,0.2,2.5,0.5,3.9,0.7c1.3,0.2,2.8,0.4,4.3,0.6c1.5,0.2,3,0.3,4.6,0.4c0.3,0,0.5,0,0.7,0c0.3,0,0.4,0,0.6,-0.1c0.2,-0.1,0.4,-0.2,0.4,-0.4c0.1,-0.2,-0.1,-0.4,-0.3,-0.5c-0.2,-0.1,-0.4,-0.1,-0.6,-0.1c-0.8,-0.1,-1.6,-0.1,-2.4,-0.2c-1.1,-0.1,-2,-0.2,-3,-0.4c-1,-0.1,-1.9,-0.2,-2.8,-0.4c-0.8,-0.2,-1.6,-0.4,-2.4,-0.6c-0.6,-0.1,-1.2,-0.3,-1.8,-0.5c-1.5,-0.4,-2.7,-1,-3.5,-1.6c-0.4,-0.2,-0.7,-0.5,-0.9,-0.7c-0.3,-0.3,-0.4,-0.6,-0.5,-0.8c-0.1,-0.3,-0.1,-0.6,0,-0.8c0,-0.3,0.2,-0.5,0.4,-0.8c0.2,-0.3,0.4,-0.5,0.8,-0.8c0.3,-0.2,0.7,-0.4,1.2,-0.7c0.4,-0.2,0.9,-0.4,1.5,-0.6c0.3,-0.1,0.7,-0.2,1,-0.4c0.6,-0.1,1.3,-0.3,2,-0.5c0.4,-0.1,0.8,-0.2,1.2,-0.2c0.8,-0.2,1.6,-0.3,2.4,-0.5c0.9,-0.1,1.7,-0.2,2.6,-0.3c0.9,-0.1,1.8,-0.1,2.7,-0.2c0.9,0,1.8,-0.1,2.7,-0.1c0.9,0,1.8,0,2.8,0c0.9,0,1.8,0.1,2.7,0.1c0.8,0.1,1.7,0.1,2.5,0.2c0.9,0.1,1.7,0.2,2.5,0.3c0.8,0.1,1.5,0.2,2.2,0.3c1.4,0.3,2.7,0.6,3.7,1c1.1,0.3,1.9,0.7,2.5,1.1c0.6,0.4,1,0.9,1.2,1.3c0.1,0.4,0.1,0.9,-0.3,1.3c-0.3,0.4,-0.8,0.8,-1.5,1.1c-0.7,0.4,-1.6,0.7,-2.7,1c-0.7,0.2,-1.5,0.4,-2.3,0.6Z" class="g1_16" />
<path d="M254.2,393.8c-0.2,0.1,-0.4,0.1,-0.7,0.1c-0.2,0,-0.5,0,-0.6,-0.2c-0.1,-0.2,0.1,-0.5,0.2,-0.6c0.2,-0.2,0.4,-0.3,0.6,-0.4c3,-1.4,7.1,-1.9,10.3,-1.9l0.4,0c1.2,0,2.3,0.1,3.5,0.2c1.1,0.1,2.1,0.2,3,0.4c1,0.2,1.8,0.4,2.5,0.6c0.7,0.2,1.2,0.4,1.6,0.7c0.4,0.3,0.7,0.5,0.8,0.8c0.1,0.1,0.1,0.2,0.1,0.3c0,0.2,-0.1,0.3,-0.2,0.5c-0.1,0.2,-0.4,0.4,-0.9,0.7c-0.4,0.2,-0.9,0.4,-1.5,0.5c-0.6,0.2,-1.3,0.4,-2.1,0.5c-0.7,0.1,-1.5,0.2,-2.3,0.2c-0.4,0,-0.8,0.1,-1.2,0.1c-0.3,0,-0.6,0,-0.9,0c-0.1,0,-0.2,0,-0.2,0c-0.4,0,-0.8,0,-1.1,0c-0.4,-0.1,-0.7,-0.1,-1,-0.1c-0.7,-0.1,-1.3,-0.1,-1.8,-0.2c-0.5,-0.1,-1,-0.3,-1.4,-0.4c-0.3,-0.1,-0.6,-0.2,-0.9,-0.4c-0.2,-0.1,-0.3,-0.3,-0.4,-0.4c0,-0.1,0,-0.3,0.1,-0.4c0.1,-0.1,0.2,-0.3,0.4,-0.4c0.2,-0.1,0.5,-0.2,0.7,-0.2c0.3,-0.1,0.6,-0.2,0.9,-0.2c0.3,-0.1,0.6,-0.1,0.9,-0.1c0.3,0,0.5,0,0.7,0c0.2,0,0.5,0,0.7,0c0.3,0,0.6,0,0.9,0.1c0.3,0,0.6,0.1,0.9,0.2c0.2,0,0.5,0.1,0.7,0.2c0.2,0.1,0.3,0.3,0.4,0.4c0.1,0.1,0.1,0.3,0.1,0.4c-0.1,0.1,-0.1,0.2,-0.2,0.2c0.1,0,0.2,0,0.3,0l0.1,0c0.2,0,0.4,0,0.6,-0.1c0.2,0,0.4,0,0.5,-0.1c0.2,0,0.4,-0.1,0.6,-0.1c0.1,-0.1,0.3,-0.2,0.4,-0.2c0.1,-0.1,0.2,-0.2,0.3,-0.3c0.1,-0.1,0.1,-0.1,0.2,-0.2c0,-0.1,0,-0.2,0,-0.3c-0.1,-0.1,-0.1,-0.2,-0.2,-0.3c-0.1,-0.1,-0.2,-0.2,-0.3,-0.3c-0.2,-0.1,-0.4,-0.1,-0.6,-0.2c-0.2,-0.1,-0.4,-0.2,-0.7,-0.3c-0.2,0,-0.5,-0.1,-0.9,-0.2c-0.3,0,-0.6,-0.1,-1,-0.1c-0.3,-0.1,-0.7,-0.1,-1.1,-0.1c-0.4,-0.1,-0.8,-0.1,-1.2,-0.1c-0.1,0,-0.1,0,-0.2,0c-3.1,0,-6.9,0.5,-9.8,1.7Z" class="g1_16" />
<path d="M338.4,461l1.5,0l0,8.2l-1.5,0l0,-8.2Z" class="g1_16" />
<path d="M342.4,469.2l0,-8.2l4.9,0l0,1.2l-3.4,0l0,2.1l3,0l0,1.2l-3,0l0,3.7Z" class="g1_16" />
<path d="M349.4,469.2l0,-8.2l5,0l0,1.2l-3.4,0l0,2.1l3,0l0,1.2l-3,0l0,3.7Z" class="g1_16" />
<path d="M332.7,462c-0.3,0,-0.7,0.1,-0.9,0.1l-0.2,0.1l0,5.8l0.2,0c0.3,0.1,0.6,0.1,0.8,0.1c1.4,0,2,-0.9,2,-3c0,-2.1,-0.6,-3.1,-1.9,-3.1m-0.1,7.3c-0.3,0,-2,-0.1,-2.5,-0.1l0,-8.2c1.1,-0.1,2.3,-0.1,2.5,-0.1c2.5,0,3.7,1.3,3.7,4.2c0,2.8,-1.2,4.2,-3.7,4.2Z" class="g1_16" />
<path d="M356.4,469.2l0,-8.2l4.9,0l0,1.2l-3.4,0l0,2.1l3,0l0,1.2l-3,0l0,2.4l3.5,0l0,1.3Z" class="g1_16" />
<path d="M371.2,469.2l0,-8.2l5,0l0,1.2l-3.5,0l0,2.1l3,0l0,1.2l-3,0l0,2.4l3.5,0l0,1.3Z" class="g1_16" />
<path d="M395.5,469.2l0,-8.2l4.9,0l0,1.2l-3.4,0l0,2.1l3,0l0,1.2l-3,0l0,2.4l3.5,0l0,1.3Z" class="g1_16" />
<path d="M277.2,461l1.5,0l0,8.2l-1.5,0l0,-8.2Z" class="g1_16" />
<path d="M365.1,465l0.6,0c1.2,0,1.8,-0.5,1.8,-1.4c0,-1.2,-0.7,-1.4,-1.7,-1.4l-0.7,0Zm2.6,4.2c0,-0.2,0,-0.3,-0.1,-0.4l0,-0.1c-0.4,-1.1,-0.8,-2.3,-1.5,-2.6l-1,0l0,3.1l-1.6,0l0,-8.2l2.2,0c2.8,0,3.4,0.9,3.4,2.5c0,1.4,-0.6,1.8,-1.3,2.1l-0.7,0.2l0.7,0.4c0.5,0.2,0.9,1.2,1.3,2.1c0.2,0.3,0.3,0.5,0.4,0.8l0,0.1Z" class="g1_16" />
<path d="M391.3,469.3c-2.8,0,-4.1,-1.3,-4.1,-4.2c0,-2.8,1.5,-4.2,4.4,-4.2c0.7,0,1.2,0.1,1.6,0.2l0,1.3c-0.4,-0.1,-1.1,-0.2,-1.6,-0.2c-1.5,0,-2.7,0.2,-2.7,2.9c0,2.6,1.3,2.9,2.6,2.9c0.6,0,1.1,-0.1,1.7,-0.3l0.1,0l0,1.3c-0.5,0.1,-1.3,0.3,-2,0.3Z" class="g1_16" />
<path d="M314.5,469.2l0,-3.7l-3.4,0l0,3.7l-1.5,0l0,-8.2l1.5,0l0,3.3l3.4,0l0,-3.3l1.6,0l0,8.2Z" class="g1_16" />
<path d="M303.8,469.2l0,-7l-2.3,0l0,-1.2l6.1,0l0,1.2l-2.3,0l0,7Z" class="g1_16" />
<path d="M253.2,469.2l0,-8.2l4.9,0l0,1.2l-3.4,0l0,2.1l3,0l0,1.2l-3,0l0,2.4l3.5,0l0,1.3Z" class="g1_16" />
<path d="M266,469.2l-3.1,-4.6l-0.7,-1.2l0,5.8l-1.5,0l0,-8.2l1.4,0l2.9,4.4l0.8,1.2l0,-5.6l1.5,0l0,8.2Z" class="g1_16" />
<path d="M286.5,469.2l-3.1,-4.6l-0.7,-1.2l0,5.8l-1.5,0l0,-8.2l1.4,0l2.9,4.4l0.8,1.2l0,-5.6l1.5,0l0,8.2Z" class="g1_16" />
<path d="M383.9,469.2l-3,-4.6l-0.7,-1.2l0,5.8l-1.5,0l0,-8.2l1.3,0l3,4.4l0.7,1.2l0,-5.6l1.6,0l0,8.2Z" class="g1_16" />
<g clip-path="url(#c0_16)">
<path d="M248.1,469.5c-0.7,0,-1.5,-0.2,-2.2,-0.3l0,-1.2c0.7,0.1,1.6,0.3,2.3,0.3c0.9,0,1.8,-0.1,1.8,-1.1c0,-0.8,-0.9,-1.2,-1.9,-1.6c-1.1,-0.5,-2.4,-1,-2.4,-2.5c0,-2.1,1.9,-2.3,3.4,-2.3c0.6,0,1.4,0.1,1.9,0.2l0,1.3c-0.5,-0.2,-1.3,-0.3,-2.1,-0.3c-0.9,0,-1.7,0.1,-1.7,1c0,0.7,0.7,1,1.6,1.4c1.3,0.5,2.7,1.1,2.7,2.8c0,1.6,-1,2.3,-3.4,2.3Z" class="g1_16" />
<path d="M271.8,469.5c-0.8,0,-1.6,-0.2,-2.3,-0.3l0,-1.2c0.7,0.1,1.6,0.3,2.4,0.3c0.8,0,1.7,-0.1,1.7,-1.1c0,-0.8,-0.9,-1.2,-1.8,-1.6c-1.2,-0.5,-2.4,-1,-2.4,-2.5c0,-2.1,1.9,-2.3,3.3,-2.3c0.7,0,1.4,0.1,2,0.2l0,1.3c-0.5,-0.2,-1.4,-0.3,-2.2,-0.3c-0.8,0,-1.7,0.1,-1.7,1c0,0.7,0.8,1,1.7,1.4c1.2,0.5,2.6,1.1,2.6,2.8c0,1.6,-0.9,2.3,-3.3,2.3Z" class="g1_16" />
</g>
<path d="M318.7,469.2l0,-8.2l4.9,0l0,1.3l-3.4,0l0,2l3,0l0,1.2l-3,0l0,2.4l3.5,0l0,1.3Z" class="g1_16" />
<path d="M293.9,469.3c-2.7,0,-4,-1.3,-4,-4.2c0,-2.8,1.5,-4.2,4.4,-4.2c0.7,0,1.4,0.1,1.8,0.2l0,1.3c-0.4,-0.1,-1.3,-0.2,-1.8,-0.2c-1.5,0,-2.7,0.2,-2.7,2.9c0,2.6,1.3,2.9,2.6,2.9c0.1,0,0.3,0,0.4,-0.1l0.3,0l0,-2.4l-1.3,0.1l0,-1.3l2.6,0l0,4.7c-0.6,0.2,-1.6,0.3,-2.3,0.3Z" class="g1_16" />
<g clip-path="url(#c1_16)">
<path d="M613,77.5c2,-1.5,2.5,-4,2.5,-4.1c0,0,0.1,-0.4,0.1,-1.4c0,-0.8,-0.1,-2.1,-0.6,-3.6c-1,-3.3,-4.2,-5.8,-6.8,-5.8c-0.2,0,-0.4,0,-0.6,0.1c-2,0.3,-3.2,1.3,-3.7,3.3c-0.2,0.9,-0.4,2.5,0.1,3.5c0,0.1,0.1,0.3,0.2,0.4c0.4,0.6,1.3,1.5,2.9,2.1c0.6,0.3,1,0.3,1.4,0.3c0.7,0,1.1,-0.3,1.3,-0.9c0.3,-0.5,0.3,-1.1,0.3,-1.3c0,-0.1,0,-0.1,0,-0.1c0,0,-0.2,-1.8,-1.7,-2.3c0,0,-0.1,0,-0.1,0c0,0.1,0,0,0,0.1c0,0,0,0.1,0,0.1c0,0,0.5,0.7,0.7,1.1c0.2,0.3,0.3,0.8,0.3,1.3c0,0.5,-0.3,1.3,-1.1,1.3c-1.2,0,-3.6,-0.9,-4,-3.4c-0.1,-0.3,-0.1,-0.6,-0.1,-1c0,-2,1,-4,3.5,-4c2.9,0,5.8,2.2,6.7,5.8c0.2,0.9,0.3,1.7,0.3,2.5c0,2.4,-1,3.9,-1.3,4.2c-0.3,0.3,-1.9,1.9,-4.5,1.9c-0.9,0,-1.8,-0.1,-2.9,-0.6c-1.7,-0.8,-3,-1.9,-3.8,-2.8c-0.3,-0.2,-0.5,-0.4,-0.7,-0.7c-0.1,-0.2,-0.1,-0.3,-0.2,-0.4c-0.4,-0.5,-0.6,-0.9,-0.6,-0.9c0,0,-0.1,-0.2,-0.2,-0.5c0,-0.1,-0.1,-0.2,-0.1,-0.3l0,-0.1c-0.2,-0.3,-0.2,-0.6,-0.3,-1l0,-0.1c-0.1,-0.2,-0.1,-0.5,-0.1,-0.7c0,0.1,-0.1,0.3,-0.1,0.4c0,1.9,1.2,5,3.8,6.9c1.9,1.3,3.8,1.9,5.5,1.9c1.5,0,2.9,-0.5,3.9,-1.2Z" class="g3_16" />
</g>
<path d="M612.2,60.6c1.1,0,1.2,-0.1,1.2,-1.1l0.4,0c-0.1,0.6,-0.1,1.2,-0.1,1.6c0,0.5,-0.1,1.1,0.1,1.8l-0.3,0c0,-1,-0.2,-1,-1.3,-1l-0.3,0l-9.7,0c-0.8,0,-1,0,-1,0.9l0,0.1l-0.3,0c0,-0.8,-0.1,-1.6,-0.3,-2.4c1.6,0,2.6,0.1,3.1,0.1l8.2,0Z" class="g1_16" />
<path d="M609.6,54.6c0.2,1.8,0.9,2.6,2.1,2.6c0.9,0,1.4,-0.5,1.4,-1.1c0,-0.6,-0.3,-0.9,-0.8,-1.5Zm4.4,2.2c0,0.9,-0.7,1.7,-1.7,1.7c-1.5,0,-2.7,-1.4,-3,-3.9l-1.2,0c-1.2,0,-1.7,0.2,-1.7,1.4c0,0.9,0.2,1.1,0.8,1.1c0.5,0.1,0.8,0.1,0.8,0.7c0,0.4,-0.2,0.6,-0.6,0.6c-0.7,0,-1.3,-0.9,-1.3,-2.3c0,-2.1,0.8,-2.7,2.5,-2.7l4,0c0.6,0,0.8,-0.2,0.8,-0.5c0,-0.2,-0.1,-0.4,-0.4,-0.7L613.3,52c0.4,0.3,0.7,0.8,0.7,1.3c0,0.7,-0.5,1.2,-1.3,1.3c0.8,0.9,1.3,1.6,1.3,2.2Z" class="g1_16" />
<g clip-path="url(#c1_16)">
<path d="M611.2,49.1c1.7,0,2.5,-0.6,2.5,-2.1c0,-1.6,-1.2,-2.2,-3.7,-2.2c-2.4,0,-3.6,0.6,-3.6,2c0,1.2,1,2.3,2.9,2.3Zm2.5,2.4l-0.3,0c-0.1,-1,-0.4,-1.1,-1.6,-1.1l-6,0c-0.8,0,-1.2,-0.9,-1.2,-0.8c0,0,-0.2,-0.5,-0.4,-0.5c1.5,0,1.1,0,1.6,0l1.8,0c-1,-0.6,-1.5,-1.4,-1.5,-2.4c0,-1.7,1.7,-3.4,3.9,-3.4c2.3,0,3.9,1.6,3.9,3.6c0,1,-0.3,1.7,-1,2.2l0.9,0.1c-0.1,0.8,-0.1,1.6,-0.1,2.3Z" class="g1_16" />
</g>
<path d="M614,103c0,2,-1.5,3.4,-3.7,3.4c-2.4,0,-4.2,-1.8,-4.2,-3.9c0,-1.3,0.7,-2.2,1.5,-2.2c0.4,0,0.6,0.2,0.6,0.6c0,0.3,-0.2,0.5,-0.5,0.5c-0.4,0,-0.6,-0.1,-0.7,-0.1c-0.4,0,-0.6,0.5,-0.6,1.2c0,1.5,1.2,2.4,3.6,2.4c2.2,0,3.4,-1,3.4,-2.4c0,-1,-0.5,-1.7,-1.4,-2.2l0.2,-0.2c1.2,0.5,1.8,1.5,1.8,2.9Z" class="g1_16" />
<path d="M610,97.7c2.5,0,3.7,-0.6,3.7,-2.1c0,-1.4,-1.2,-2,-3.7,-2c-2.4,0,-3.6,0.6,-3.6,2c0,1.5,1.2,2.1,3.6,2.1m0,-5.6c2.3,0,4,1.6,4,3.5c0,1.9,-1.7,3.5,-4,3.5c-2.2,0,-3.9,-1.6,-3.9,-3.5c0,-1.9,1.7,-3.5,3.9,-3.5Z" class="g1_16" />
<path d="M611.9,88.7l0.4,0c0.9,0,1.1,-0.1,1.1,-0.9l0.4,0c-0.1,0.6,-0.1,1.1,-0.1,1.5c0,0.5,0,1,0.1,1.6l-0.4,0C613.4,90,613.2,90,612.3,90l-0.4,0l-4.2,0c-0.8,0,-1,0,-1,0.8l-0.3,0c-0.1,-0.7,-0.2,-1.4,-0.3,-2.1l1.8,0c-1.2,-0.7,-1.8,-1.6,-1.8,-2.6c0,-1.1,0.7,-1.8,1.9,-1.9c-1.3,-0.7,-1.9,-1.6,-1.9,-2.6c0,-1.6,1,-2,2.9,-2l2.9,0l0.4,0c0.9,0,1.1,-0.1,1.1,-0.9l0.4,0c-0.1,0.6,-0.1,1.1,-0.1,1.5c0,0.5,0,1,0.1,1.6l-0.4,0c0,-0.9,-0.2,-0.9,-1.1,-0.9l-0.4,0l-3.6,0c-1.3,0,-1.9,0.1,-1.9,1c0,0.9,1.3,2.2,2.9,2.2l2.6,0l0.4,0c0.9,0,1.1,0,1.1,-0.9l0.4,0c-0.1,0.7,-0.1,1.2,-0.1,1.6c0,0.4,0,0.9,0.1,1.5l-0.4,0c0,-0.9,-0.2,-0.9,-1.1,-0.9l-0.4,0l-3.6,0c-1.3,0,-1.9,0.1,-1.9,1c0,1,1.3,2.3,2.9,2.3Z" class="g1_16" />
</svg>