<?xml version="1.0" encoding="UTF-8" standalone="no"?>
<!DOCTYPE svg PUBLIC "-//W3C//DTD SVG 1.1//EN"
"http://www.w3.org/Graphics/SVG/1.1/DTD/svg11.dtd">
<svg viewBox="0 0 640 909" version="1.1" xmlns="http://www.w3.org/2000/svg" xmlns:xlink="http://www.w3.org/1999/xlink">
<defs>
<style type="text/css"><![CDATA[
.g1_1{
fill: #FBAF1E;
}
.g2_1{
fill: none;
stroke: #FBAF1E;
stroke-width: 0.15277778;
stroke-linecap: butt;
stroke-linejoin: miter;
stroke-miterlimit: 4;
}
.g3_1{
fill: #FFFFFF;
}
.g4_1{
fill: none;
stroke: #FBAF1E;
stroke-width: 1.5277778;
stroke-linecap: butt;
stroke-linejoin: miter;
stroke-miterlimit: 4;
}
]]></style>
</defs>
<image preserveAspectRatio="none" x="-16" y="185" width="609" height="682" xlink:href="img/1.png" />
<image preserveAspectRatio="none" x="-1" y="40" width="592" height="151" xlink:href="img/2.png" />
<path d="M522.6,70.1c-4.5,-4.8,-21.3,4.3,-38.5,18.4l0,1.9C500.9,76.3,516.7,68.1,520.4,71.9c1.8,2,0.2,8.2,-4,15.3c-0.6,0.3,-1.3,0.9,-1.9,1.7c-5.3,7.7,-13.1,17,-21.7,25.1c-21.8,20.6,-43,33.1,-47.3,28.6c-2.5,-2.6,1.5,-11,8.9,-21l-2.1,0c-7.7,10.6,-11.9,19.7,-8.8,23c5.4,5.8,29.9,-8.2,51.7,-28.8c9.9,-9.4,17.5,-17.3,22.1,-24.3c1.3,-2,1.4,-3.5,0.8,-4.1c5.3,-8.2,7.2,-14.5,4.5,-17.3Z" class="g1_1" />
<path d="M522.6,70.1c-4.5,-4.8,-21.3,4.3,-38.5,18.4l0,1.9C500.9,76.3,516.7,68.1,520.4,71.9c1.8,2,0.2,8.2,-4,15.3c-0.6,0.3,-1.3,0.9,-1.9,1.7c-5.3,7.7,-13.1,17,-21.7,25.1c-21.8,20.6,-43,33.1,-47.3,28.6c-2.5,-2.6,1.5,-11,8.9,-21l-2.1,0c-7.7,10.6,-11.9,19.7,-8.8,23c5.4,5.8,29.9,-8.2,51.7,-28.8c9.9,-9.4,17.5,-17.3,22.1,-24.3c1.3,-2,1.4,-3.5,0.8,-4.1c5.3,-8.2,7.2,-14.5,4.5,-17.3Z" class="g2_1" />
<path d="M541,154.8l-1.6,0l0,9.7l1.8,0l0,-6.8l0.8,1.4l3.6,5.4l1.6,0l0,-9.7l-1.8,0l0,6.7L544.5,160Zm-4.5,0l-5.9,0l0,9.7l6,0l0,-1.5l-4.2,0l0,-2.8l3.6,0l0,-1.4l-3.6,0l0,-2.5l4.1,0Zm-13.1,1.5l0.8,0c1.3,0,2,0.2,2,1.6c0,1.1,-0.7,1.7,-2,1.7l-0.8,0Zm0.7,-1.5l-2.5,0l0,9.7l1.8,0l0,-3.6l1.2,0c0.9,0.3,1.4,1.7,1.8,3l0,0.1c0,0.2,0.1,0.3,0.1,0.5l2.1,0l0,-0.1c-0.1,-0.3,-0.3,-0.6,-0.4,-1c-0.5,-1,-1,-2.1,-1.6,-2.5l-0.8,-0.4l0.8,-0.3c0.8,-0.3,1.5,-0.8,1.5,-2.4c0,-1.9,-0.6,-3,-4,-3m-5.1,0l-5.9,0l0,9.7l6,0l0,-1.5l-4.2,0l0,-2.8l3.6,0l0,-1.4l-3.6,0l0,-2.5l4.1,0Zm-8.2,0l-5.9,0l0,9.7l1.8,0l0,-4.3l3.6,0l0,-1.4l-3.6,0l0,-2.5l4.1,0Zm-8.3,0l-5.9,0l0,9.7l1.8,0l0,-4.3l3.6,0l0,-1.4l-3.6,0l0,-2.5l4.1,0Zm-8.8,0l-1.8,0l0,9.7l1.8,0l0,-9.7Zm-19.2,0l-5.9,0l0,9.7l6,0l0,-1.5l-4.2,0l0,-2.8l3.6,0l0,-1.4l-3.6,0l0,-2.5l4.1,0Zm-39.8,4.9c0,3.4,1.5,4.9,4.7,4.9c0.9,0,2,-0.1,2.7,-0.3l0,-5.5l-3,0l0,1.5l1.4,-0.1l0,2.8l-0.3,0c-0.2,0.1,-0.3,0.1,-0.5,0.1c-1.5,0,-3.1,-0.3,-3.1,-3.5c0,-3.1,1.5,-3.4,3.2,-3.4c0.6,0,1.7,0.2,2.2,0.3l0,-1.5c-0.5,-0.2,-1.3,-0.3,-2.1,-0.3c-3.4,0,-5.2,1.7,-5.2,5M426,154.8l-1.6,0l0,9.7l1.8,0l0,-6.8l0.8,1.4l3.6,5.4l1.6,0l0,-9.7l-1.8,0l0,6.7L429.5,160Zm-4.5,0l-1.8,0l0,9.7l1.8,0l0,-9.7Zm-6,7.4c0,1.1,-1.1,1.3,-2.1,1.3c-0.9,0,-2,-0.2,-2.8,-0.4l0,1.4c0.8,0.2,1.8,0.3,2.7,0.3c2.8,0,3.9,-0.7,3.9,-2.6c0,-2,-1.6,-2.7,-3.1,-3.4c-1.1,-0.4,-2,-0.8,-2,-1.6c0,-1.1,1,-1.2,2,-1.2c1,0,2,0.2,2.6,0.4l0,-1.6c-0.6,-0.1,-1.5,-0.2,-2.3,-0.2c-1.7,0,-4,0.2,-4,2.7c0,1.8,1.5,2.4,2.9,3c1.1,0.5,2.2,0.9,2.2,1.9m-13.7,-7.4l-1.6,0l0,9.7l1.8,0l0,-6.8l0.8,1.4l3.6,5.4l1.6,0l0,-9.7l-1.8,0l0,6.7L405.3,160ZM392,120.4l5.5,0l6.7,-24.9l6.7,24.9l5.4,0l9.4,-34.2l-5.4,0l-6.7,24.9L406.8,86.2l-5.3,0l-6.8,24.9L388.1,86.2l-5.4,0Zm5.2,34.4l-5.9,0l0,9.7l6,0l0,-1.5l-4.2,0l0,-2.8l3.6,0l0,-1.4l-3.6,0l0,-2.5l4.1,0Zm-9.6,7.4c0,1.1,-1.1,1.3,-2.1,1.3c-0.9,0,-2,-0.2,-2.8,-0.4l0,1.4c0.8,0.2,1.8,0.3,2.7,0.3c2.8,0,3.9,-0.7,3.9,-2.6c0,-2,-1.6,-2.7,-3.1,-3.4c-1.1,-0.4,-2,-0.8,-2,-1.6c0,-1.1,1,-1.2,2,-1.2c1,0,2,0.2,2.6,0.4l0,-1.6c-0.6,-0.1,-1.6,-0.2,-2.3,-0.2c-1.7,0,-4,0.2,-4,2.7c0,1.8,1.5,2.4,2.9,3c1.1,0.5,2.2,0.9,2.2,1.9M433.4,76.1c0.1,-0.4,0,-0.8,-0.1,-1.2c-0.2,-0.4,-0.5,-0.8,-0.9,-1.1c-0.5,-0.4,-1,-0.8,-1.7,-1.2c-0.7,-0.3,-1.6,-0.7,-2.5,-1c-0.9,-0.3,-2,-0.6,-3.2,-0.9c-1.1,-0.3,-2.4,-0.5,-3.7,-0.8c-1.4,-0.2,-2.8,-0.4,-4.3,-0.5c-1.5,-0.2,-3,-0.3,-4.6,-0.4c-1.6,-0.1,-3.3,-0.2,-5,-0.2c-1.6,0,-3.3,0,-5,0c-1.6,0.1,-3.3,0.2,-4.9,0.3c-1.6,0.1,-3.2,0.3,-4.7,0.5c-1.6,0.2,-3,0.4,-4.4,0.7c-1.4,0.2,-2.7,0.5,-3.9,0.9c-1.2,0.3,-2.3,0.6,-3.2,1c-1,0.4,-1.8,0.8,-2.5,1.2c-0.7,0.4,-1.3,0.9,-1.7,1.3c-0.4,0.4,-0.6,0.9,-0.7,1.4c-0.1,0.4,-0.1,0.9,0.2,1.4c0.2,0.4,0.6,0.9,1.1,1.3c0.6,0.5,1.3,0.9,2.1,1.4c0.8,0.4,1.8,0.8,3,1.2c1.1,0.3,2.4,0.7,3.8,1c1.3,0.4,2.9,0.7,4.5,0.9c1.6,0.3,3.3,0.5,5,0.7c1.8,0.2,3.7,0.4,5.6,0.5c0.2,0,0.5,0,0.8,0c0.2,0,0.5,0,0.7,-0.1c0.2,-0.1,0.4,-0.3,0.5,-0.5c0,-0.3,-0.2,-0.5,-0.4,-0.6c-0.3,-0.1,-0.5,-0.1,-0.7,-0.1c-1,-0.1,-2,-0.2,-2.9,-0.3c-1.2,-0.1,-2.4,-0.2,-3.5,-0.4C395,82.4,394,82.2,392.9,82c-1,-0.2,-2,-0.4,-2.9,-0.6c-0.7,-0.2,-1.4,-0.4,-2.1,-0.6c-1.7,-0.6,-3.2,-1.2,-4.2,-1.9c-0.4,-0.3,-0.8,-0.6,-1,-0.9c-0.3,-0.4,-0.5,-0.7,-0.6,-1c-0.1,-0.3,-0.1,-0.6,0,-0.9c0.1,-0.3,0.2,-0.6,0.5,-0.9c0.2,-0.3,0.5,-0.6,0.9,-0.9c0.4,-0.3,0.9,-0.6,1.4,-0.9c0.6,-0.2,1.2,-0.5,1.9,-0.7c0.3,-0.2,0.7,-0.3,1.1,-0.4c0.8,-0.3,1.6,-0.5,2.4,-0.7c0.5,-0.1,1,-0.2,1.5,-0.3c0.8,-0.1,1.8,-0.3,2.8,-0.4c0.9,-0.2,2,-0.3,3,-0.4c1,-0.1,2.1,-0.2,3.2,-0.3c1,0,2.1,-0.1,3.2,-0.1c1.1,0,2.2,0,3.2,0c1.1,0,2.2,0.1,3.2,0.1c1.1,0.1,2.1,0.2,3.1,0.2c1,0.1,1.9,0.2,2.9,0.4c0.9,0.1,1.8,0.2,2.6,0.4c1.6,0.3,3.1,0.7,4.4,1.1c1.2,0.4,2.2,0.9,2.9,1.4c0.8,0.5,1.2,1,1.4,1.5c0.2,0.5,0.1,1,-0.3,1.5c-0.4,0.5,-1,0.9,-1.9,1.4c-0.8,0.4,-1.9,0.8,-3.1,1.1c-0.9,0.2,-1.8,0.5,-2.7,0.6c0.2,-0.2,0.4,-0.4,0.4,-0.7c0.1,-0.4,-0.1,-0.6,-0.4,-0.7c-0.6,-0.3,-1.4,0,-1.9,0.1c-0.3,0.1,-0.6,0.2,-0.9,0.3c-0.6,0.2,-1.3,0.4,-2,0.5c-0.7,0.1,-1.4,0.3,-2.2,0.4c-0.7,0.1,-1.5,0.1,-2.3,0.2c-0.8,0,-1.5,0.1,-2.3,0.1c-0.3,0,-0.5,0,-0.7,0c-0.7,0,-1.4,0,-2.1,0c-1,-0.1,-1.9,-0.1,-2.9,-0.2c-0.9,0,-1.8,-0.1,-2.6,-0.2c-0.8,-0.1,-1.6,-0.3,-2.3,-0.4c-0.8,-0.1,-1.4,-0.3,-2,-0.4c-0.6,-0.2,-1.1,-0.3,-1.6,-0.5c-0.2,-0.1,-0.4,-0.1,-0.7,-0.1c-0.2,0,-0.5,0,-0.6,0.2c-0.1,0.2,0,0.5,0.2,0.6c0.1,0.2,0.3,0.3,0.6,0.4c0.1,0.1,0.2,0.1,0.3,0.2c0.5,0.2,1,0.3,1.6,0.5c0.6,0.2,1.2,0.3,1.9,0.5c0.7,0.1,1.4,0.2,2.1,0.3c0.8,0.2,1.5,0.3,2.3,0.3c0.8,0.1,1.6,0.2,2.5,0.2c0.8,0.1,1.7,0.1,2.5,0.1c0.9,0,1.8,0,2.6,0c0.9,0,1.7,-0.1,2.6,-0.1c0.6,-0.1,1.2,-0.1,1.8,-0.2c0.2,0,0.3,0,0.5,-0.1c0,0.4,0.4,0.5,0.6,0.6c0.4,0.1,0.7,0.1,1,0.1c1.3,-0.1,2.6,-0.2,3.9,-0.4c1.2,-0.1,2.5,-0.3,3.6,-0.5c1.2,-0.2,2.2,-0.5,3.2,-0.8c1,-0.2,2,-0.5,2.8,-0.8c0.8,-0.3,1.5,-0.7,2.1,-1c0.6,-0.4,1.1,-0.7,1.4,-1.1c0.4,-0.4,0.6,-0.7,0.7,-1.1m-22.2,-1c0.1,0.1,0.1,0.2,0.2,0.3c0,0.1,0,0.2,0,0.3c-0.1,0.1,-0.1,0.2,-0.2,0.3c-0.1,0.1,-0.2,0.2,-0.4,0.3c-0.1,0.1,-0.3,0.2,-0.5,0.2c-0.2,0.1,-0.4,0.2,-0.6,0.2c-0.2,0.1,-0.4,0.1,-0.7,0.2c-0.2,0,-0.4,0,-0.7,0.1c0,0,-0.1,0,-0.1,0c-0.1,0,-0.2,0,-0.3,0c0.1,-0.1,0.1,-0.2,0.2,-0.3c0,-0.2,0,-0.3,-0.1,-0.5c-0.1,-0.1,-0.3,-0.3,-0.5,-0.4c-0.2,-0.1,-0.5,-0.2,-0.9,-0.3c-0.3,-0.1,-0.6,-0.2,-1,-0.2c-0.3,-0.1,-0.7,-0.1,-1.1,-0.2c-0.2,0,-0.5,0,-0.8,0c-0.2,0,-0.5,0,-0.7,0c-0.4,0.1,-0.8,0.1,-1.1,0.2c-0.4,0,-0.8,0.1,-1.1,0.2c-0.3,0.1,-0.6,0.2,-0.8,0.3c-0.2,0.1,-0.4,0.3,-0.5,0.4c-0.1,0.2,-0.1,0.3,-0.1,0.5c0.1,0.2,0.2,0.3,0.5,0.5c0.3,0.2,0.6,0.3,1,0.5c0.5,0.1,1.1,0.3,1.7,0.4c0.6,0.1,1.3,0.2,2.1,0.2c0.3,0.1,0.7,0.1,1.2,0.1c0.4,0.1,0.8,0.1,1.2,0.1c0.1,0,0.2,0,0.3,0c0.3,0,0.7,0,1.1,-0.1c0.5,0,0.9,0,1.4,0c1,-0.1,1.9,-0.2,2.7,-0.3c0.9,-0.2,1.7,-0.3,2.4,-0.5c0.8,-0.2,1.4,-0.5,1.9,-0.7c0.5,-0.3,0.8,-0.5,1,-0.8c0.2,-0.2,0.2,-0.4,0.2,-0.6c0,-0.1,0,-0.2,-0.1,-0.4c-0.1,-0.3,-0.4,-0.6,-0.9,-0.9c-0.5,-0.3,-1.1,-0.6,-1.9,-0.8c-0.9,-0.3,-1.8,-0.5,-2.9,-0.7c-1.1,-0.2,-2.3,-0.4,-3.6,-0.5C407.3,72.1,405.9,72,404.5,72l-0.4,0c-3.8,0,-8.7,0.6,-12.2,2.2c-0.2,0.2,-0.5,0.3,-0.7,0.5c-0.1,0.2,-0.4,0.4,-0.2,0.7c0.1,0.2,0.5,0.3,0.7,0.3c0.3,0,0.6,-0.1,0.8,-0.2c3.5,-1.4,8,-2,11.6,-2c0.1,0,0.2,0,0.2,0c0.5,0,1,0.1,1.4,0.1c0.5,0,1,0.1,1.4,0.1c0.4,0.1,0.8,0.1,1.2,0.2c0.4,0.1,0.7,0.2,1,0.2c0.3,0.1,0.6,0.2,0.8,0.3c0.3,0.1,0.5,0.2,0.7,0.3c0.1,0.1,0.3,0.3,0.4,0.4m31.4,45.3l5.4,0l0,-14.9C448,97.9,445,96,440.7,96c-2.5,0,-4.5,0.4,-7,1.4l-0.2,0l0.1,-3.2l0,-8.4l-5.4,0.5l0,34.1l5.4,0l0,-18.9c1.4,-0.4,2.7,-0.7,4.3,-0.7c2.5,0,4.7,0.6,4.7,5.1Zm13,34.4l-7.2,0l0,1.5l2.7,-0.1l0,8.3l1.8,0l0,-8.3l2.7,0.1Zm-2.9,-34.4l5.4,0l0,-24.1l-5.4,0l0,24.1ZM458.6,90c0,-1.8,-0.4,-3.4,-3.2,-3.4c-2.7,0,-3.2,1.6,-3.2,3.4c0,1.9,0.5,3.5,3.2,3.5c2.6,0,3.2,-1.6,3.2,-3.5m5.1,68.8l-4,0l0,-4l-1.8,0l0,9.7l1.8,0l0,-4.3l4,0l0,4.3l1.8,0l0,-9.7l-1.8,0ZM472.1,101c1.1,0,2.1,0.2,3.1,0.3l0,-5.3c-0.4,0,-0.8,0,-1.2,0c-2.9,0,-5.2,1.1,-6.6,2.3l-0.3,0l-0.8,-2l-3.6,0l0,24.1l5.4,0l0,-18.4c1.4,-0.6,2.6,-1,4,-1m5.4,19.4l5.4,0l0,-34.6l-5.4,0.5Zm10,39.2c0,2.5,-0.8,3.7,-2.4,3.7c-0.3,0,-0.7,-0.1,-0.9,-0.2l-0.3,0l0,-6.9l0.3,0c0.2,-0.1,0.6,-0.2,0.9,-0.2c1.6,0,2.4,1.1,2.4,3.6m-2.4,-4.9c-0.3,0,-1.7,0,-3,0.1l0,9.7c0.5,0,2.6,0.1,3,0.1c2.9,0,4.3,-1.6,4.3,-4.9c0,-3.4,-1.4,-5,-4.3,-5m16.8,-50c1.4,-1.6,2.8,-3.1,4.1,-4.7c-1.5,-2.8,-4,-4,-6.9,-4c-2.7,0,-5.4,1.2,-7,2.1l-0.3,0l-0.4,-1.8l-4.1,0l0,22.7c1.7,-1.5,3.4,-3.1,5.2,-4.7c0.2,-5.1,0.2,-7.7,0.2,-12.4c1.3,-0.5,2.6,-0.7,4,-0.7c2.8,0,4.6,0.8,5.2,3.5m5.7,3.5c0,-1.7,-0.1,-3.1,-0.3,-4.4c-1.6,1.7,-3.4,3.5,-5.2,5.3c-0.4,5.5,-2.5,7,-5.5,7c-0.6,0,-1.1,0,-1.6,-0.1c-2.6,2.4,-5.1,4.7,-7.7,6.9l0,9l5.4,-0.6l0,-11l0.1,0c1.6,0.3,3.2,0.5,4.8,0.5c6.2,0,10,-4.2,10,-12.6m18.8,0.3c0,4.6,-1,8.2,-5.3,8.2c-4.3,0,-5.2,-3.8,-5.2,-8.2c0,-4.7,1.1,-8.3,5.4,-8.3c4.3,0,5.1,3.7,5.1,8.3m5.5,0c0,-8,-3,-12.5,-10.6,-12.5c-7.7,0,-10.9,4.5,-10.9,12.5c0,7.5,2.8,12.4,10.8,12.4c7.9,0,10.7,-4.9,10.7,-12.4m18.7,0c0,4.6,-1,8.2,-5.3,8.2c-4.3,0,-5.2,-3.8,-5.2,-8.2c0,-4.7,1.1,-8.3,5.4,-8.3c4.4,0,5.1,3.7,5.1,8.3m5.5,0c0,-8,-3,-12.5,-10.6,-12.5c-7.7,0,-10.9,4.5,-10.9,12.5c0,7.5,2.8,12.4,10.8,12.4c7.9,0,10.7,-4.9,10.7,-12.4m-1.8,56.1c0.9,0,1.8,-0.1,2.4,-0.3l0,-1.5l-0.2,0c-0.6,0.1,-1.2,0.3,-1.9,0.3c-1.5,0,-3.1,-0.3,-3.1,-3.5c0,-3.1,1.5,-3.4,3.2,-3.4c0.6,0,1.4,0.2,1.9,0.3l0,-1.6c-0.5,-0.1,-1.1,-0.2,-1.9,-0.2c-3.4,0,-5.1,1.7,-5.1,5c0,3.4,1.4,4.9,4.7,4.9m5.4,-44.2l5.4,0l0,-34.6l-5.4,0.5Zm1.4,42.6l0,-2.8l3.5,0l0,-1.4l-3.5,0l0,-2.5l4,0l0,-1.5l-5.8,0l0,9.7l5.9,0l0,-1.5Z" class="g3_1" />
<path d="M191.1,802.6l376.8,0" class="g4_1" />
<image preserveAspectRatio="none" x="588" y="41" width="12" height="827" xlink:href="img/3.png" />
</svg>